<svg xmlns="http://www.w3.org/2000/svg" xmlns:xlink="http://www.w3.org/1999/xlink" version="1.1" x="0px" y="0px" viewBox="0 0 20 25" enable-background="new 0 0 20 20" xml:space="preserve"><g><rect x="4" y="4" fill="#cbd2dd" width="8" height="2"/><rect x="4" y="8" fill="#cbd2dd" width="4" height="2"/><rect x="4" y="12" fill="#cbd2dd" width="3" height="2"/><path fill="#cbd2dd" d="M19.1,4.9c-0.8-0.8-2.1-1-3.1-0.7V3c0-1.7-1.3-3-3-3H3C1.3,0,0,1.3,0,3v14c0,1.7,1.3,3,3,3h10   c1.7,0,3-1.3,3-3v-4.8l3.1-3.1C20.3,7.9,20.3,6,19.1,4.9z M14,17c0,0.6-0.4,1-1,1H3c-0.6,0-1-0.4-1-1V3c0-0.6,0.4-1,1-1h10   c0.6,0,1,0.4,1,1v2.8l-6,6V16h4.2l1.8-1.8V17z M17.7,7.7L11.4,14H10l0-1.4l6.3-6.3c0.4-0.4,1-0.4,1.4,0C18.1,6.7,18.1,7.3,17.7,7.7   z"/></g></svg>