<svg xmlns:x="http://ns.adobe.com/Extensibility/1.0/" xmlns:i="http://ns.adobe.com/AdobeIllustrator/10.0/" xmlns:graph="http://ns.adobe.com/Graphs/1.0/" xmlns="http://www.w3.org/2000/svg" xmlns:xlink="http://www.w3.org/1999/xlink" version="1.1" x="0px" y="0px" viewBox="0 0 100 125" enable-background="new 0 0 100 100" xml:space="preserve"><metadata><sfw xmlns="http://ns.adobe.com/SaveForWeb/1.0/"><slices/><sliceSourceBounds width="1449" height="1448" y="-1448.9" x="0.5" bottomLeftOrigin="true"/></sfw></metadata><path fill="#ffffff" d="M57.5,23.1c-0.1,0.8-0.4,1.6-0.6,2.4c1.5-0.1,3.3,0.7,1.6,6.6c-1.2,4.3-2.3,5.5-3.2,5.6c-0.8,5.1-4.9,11.6-11.2,13.9  c-2.6,1-5.6,1-8.2,0c-6.5-2.3-10.4-8.8-11.2-13.9c-0.9-0.1-2-1.3-3.2-5.6c-1.7-5.9,0.1-6.7,1.6-6.6c-0.3-0.8-0.5-1.6-0.6-2.4h0  c-0.5-2.7-0.7-5.3,0-7.7c0.8-3.3,2.5-5.9,4.5-7.9c1.3-1.3,2.7-2.5,4.2-3.5c1.2-0.9,2.6-1.6,4.1-2.1l0,0c1.2-0.4,2.4-0.6,3.7-0.7  c4-0.3,7.1,0.7,9.3,2c3.3,1.8,4.5,4.2,4.5,4.2S60.1,7.8,57.5,23.1z M47.1,68.4L46,71.8l0,0L45,74.7L42,66c7.5-10.5-1.5-10.4-2-10.3  c-0.5,0-9.5-0.1-2,10.3l-3,8.7l-0.9-2.9l0,0l-1.1-3.4L27,50.1c0,0-7.4,5.2-16.5,7.5c-6.8,1.7-7.1,9.6-6.9,13.5c0,0,0.4,5.3,0.8,7.6  c0,0,13.3,8.6,35.5,8.6c5.4,0,10.3-0.5,14.6-1.3c-4.1-8.1-2.8-18.3,3.9-25.1c2-2,4.3-3.5,6.8-4.6c-7.1-2.6-12.4-6.3-12.4-6.3  L47.1,68.4z M87.6,84.7l7.7,7.7c1.5,1.5,1.5,3.9,0,5.4c-1.5,1.5-3.9,1.5-5.4,0l-7.7-7.7c-6.3,3.8-14.6,3-20-2.4  c-6.3-6.3-6.3-16.7,0-23c6.3-6.3,16.7-6.3,23,0C90.6,70.1,91.4,78.4,87.6,84.7z M81,68.9c-4-4-10.6-4-14.6,0c-4,4-4,10.6,0,14.6  c4,4,10.6,4,14.6,0C85,79.5,85,72.9,81,68.9z"/></svg>